<svg aria-hidden="true" style="width:0;height:0;position:absolute;overflow:hidden" xmlns="http://www.w3.org/2000/svg"><defs><symbol id="aroow-dwn" viewBox="0 0 32 32"><path fill="none" stroke="#cbcbcb" style="stroke:var(--color1,#cbcbcb)" stroke-width=".478" d="M15.842.226v31.05m15.13-15.006-15.2 15.2M.572 15.932l15.2 15.2"/></symbol><symbol id="burger-cross" viewBox="0 0 32 32"><path fill="#fff" style="fill:var(--color2,#fff)" d="m15.657 14.901-9.052-9.05-.754.754 9.052 9.052-9.052 9.051.754.754 9.052-9.051 9.051 9.051.754-.754-9.051-9.051 9.051-9.052-.754-.754-9.051 9.052z"/><path fill="#222" style="fill:var(--color3,#222)" d="m6.605 5.851.378-.377-.378-.378-.377.378.377.377zm9.052 9.051-.378.377.378.378.377-.378-.377-.377zM5.851 6.605l-.377-.377-.378.377.378.378.377-.378zm9.051 9.052.377.377.378-.377-.378-.378-.377.378zm-9.051 9.05-.377-.378-.378.378.378.378.377-.378zm.754.754-.377.378.377.377.378-.377-.378-.378zm9.052-9.05.377-.378-.377-.377-.378.377.378.378zm9.05 9.05-.378.378.378.377.378-.377-.378-.378zm.754-.754.378.378.377-.378-.377-.378-.378.378zm-9.05-9.05-.378-.378-.377.378.377.377.378-.377zm9.05-9.052.378.378.377-.378-.377-.377-.378.377zm-.754-.754.378-.377-.378-.378-.378.378.378.377zm-18.479.378 9.051 9.051.754-.754-9.051-9.051-.754.754zm0 .754.754-.754-.754-.754-.754.754.754.754zm9.051 8.297-9.05-9.051-.754.754 9.051 9.051.754-.754zm-9.05 9.805 9.051-9.052-.754-.754-9.051 9.052.754.754zm.754 0-.754-.754-.754.754.754.754.754-.754zm8.297-9.052-9.051 9.052.754.754 9.051-9.052-.754-.754zm9.806 9.052-9.054-9.053-.754.754 9.051 9.052.754-.754zm0-.754-.755.754.754.754.755-.754-.754-.754zm-9.054-8.299 9.052 9.052.754-.754-9.052-9.052-.754.754zm9.052-9.805-9.052 9.051.754.754 9.052-9.051-.754-.754zm-.755 0 .754.754.755-.754-.754-.754-.755.754zm-8.297 9.051 9.052-9.051-.755-.754-9.051 9.051.754.754z"/></symbol><symbol id="burger-menu" viewBox="0 0 32 32"><path fill="#fff" style="fill:var(--color2,#fff)" d="M26.667 8.533H6.4V7.466h20.267v1.067zm0 17.067H6.4v-1.067h20.267V25.6zM6.4 17.067h20.267V16H6.4v1.067z"/><path fill="#fff" style="fill:var(--color2,#fff)" d="M6.4 8.533h-.533v.533H6.4v-.533zm20.267 0v.533h.533v-.533h-.533zM6.4 7.467v-.533h-.533v.533H6.4zm20.267 0h.533v-.533h-.533v.533zM6.4 25.6h-.533v.533H6.4V25.6zm20.267 0v.533h.533V25.6h-.533zM6.4 24.533V24h-.533v.533H6.4zm20.267 0h.533V24h-.533v.533zm0-7.466v.533h.533v-.533h-.533zm-20.267 0h-.533v.533H6.4v-.533zM26.667 16h.533v-.533h-.533V16zM6.4 16v-.533h-.533V16H6.4zm0-6.933h20.267V8H6.4v1.067zm-.533-1.6v1.067h1.067V7.467H5.867zm20.8-.534H6.4V8h20.267V6.933zm.533 1.6V7.466h-1.067v1.067H27.2zm-20.8 17.6h20.267v-1.067H6.4v1.067zm-.533-1.6V25.6h1.067v-1.067H5.867zm20.8-.533H6.4v1.067h20.267V24zm.533 1.6v-1.067h-1.067V25.6H27.2zm-.533-9.067H6.4V17.6h20.267v-1.067zM26.133 16v1.067H27.2V16h-1.067zM6.4 16.533h20.267v-1.067H6.4v1.067zm.533.534V16H5.866v1.067h1.067z"/></symbol><symbol id="logo-it" viewBox="0 0 104 32"><path d="M40.335 14.881c-2.793-.684-4.842-1.027-4.842-3.527 0-1.553 1.437-2.58 4.125-2.58 3.006 0 4.442 1.316 4.789 3.843h2.394c-.319-3.896-3.14-5.949-7.183-5.949-4.205 0-6.52 1.974-6.52 4.949 0 3.658 3.406 4.632 6.253 5.29 4.257.974 5.667 1.448 5.667 4.027 0 1.686-1.171 3.185-4.47 3.185-3.992 0-5.587-2-5.854-4.58h-2.395c.267 4.317 3.751 6.686 8.249 6.686 4.816 0 6.864-2.553 6.864-5.29 0-4.291-2.793-5.001-7.076-6.054z"/><path d="m61.776 25.147-1.904-2.352c1.695-1.71 2.843-3.983 3.313-6.494 1.095-5.827-1.801-10.077-7.357-10.077-5.401 0-9.783 4.089-10.854 9.756-1.095 5.826 1.8 10.103 7.331 10.103a10.31 10.31 0 0 0 5.817-1.765l1.905 2.352 1.748-1.524zm-9.288-1.203c-4.643 0-5.974-3.607-5.218-7.643.783-4.196 3.654-7.939 8.401-7.939 4.644 0 6.001 3.582 5.218 7.618-.364 1.925-1.148 3.715-2.295 5.105l-1.982-2.432-1.723 1.524 1.957 2.459c-1.2.802-2.635 1.309-4.356 1.309z"/><path d="M75.86 19.465V6.668h-2.336v12.797c0 3.111-1.558 4.614-4.776 4.614s-4.776-1.502-4.776-4.614V6.668h-2.335v12.797c0 3.917 2.154 6.761 7.112 6.761s7.112-2.844 7.112-6.761z"/><path d="m84.102 21.108 1.698 4.673h2.504L81.219 7.113h-2.694l-7.112 18.668h2.506l1.697-4.673h8.485zm-7.677-2.089 3.421-9.739h.053l3.423 9.739h-6.897z"/><path d="M86.528 25.781h6.783c5.16 0 8.329-3.316 8.329-9.321s-3.168-9.348-8.329-9.348h-6.783V25.78zm2.356-16.579h4.426c4.768 0 5.972 3.603 5.972 7.258s-1.205 7.232-5.972 7.232h-4.426V9.202zM12.152 25.781h2.34l3.226-16.579h6.191l.39-2.089H9.575l-.389 2.089h6.19l-3.223 16.579zM4.962 7.113 1.186 25.781h2.445L7.409 7.113H4.963z"/></symbol></defs></svg>