<svg aria-hidden="true" style="width:0;height:0;position:absolute;overflow:hidden" xmlns="http://www.w3.org/2000/svg"><defs><symbol id="burger-cross" viewBox="0 0 32 32"><path fill="#fff" style="fill:var(--color1,#fff)" d="M15.656 14.902 6.605 5.851l-.754.754 9.051 9.051-9.051 9.051.754.754 9.051-9.051 9.051 9.051.754-.754-9.051-9.051 9.051-9.051-.754-.754-9.051 9.051z"/><path fill="#222" style="fill:var(--color2,#222)" d="m6.605 5.851.377-.377-.377-.377-.377.377.377.377zm9.051 9.051-.377.377.377.377.377-.377-.377-.377zM5.851 6.605l-.377-.377-.377.377.377.377.377-.377zm9.051 9.051.377.377.377-.377-.377-.377-.377.377zm-9.051 9.051-.377-.377-.377.377.377.377.377-.377zm.754.754-.377.377.377.377.377-.377-.377-.377zm9.051-9.051.377-.377-.377-.377-.377.377.377.377zm9.051 9.051-.377.377.377.377.377-.377-.377-.377zm.754-.754.377.377.377-.377-.377-.377-.377.377zm-9.051-9.051-.377-.377-.377.377.377.377.377-.377zm9.051-9.051.377.377.377-.377-.377-.377-.377.377zm-.754-.754.377-.377-.377-.377-.377.377.377.377zm-18.479.377 9.051 9.051.754-.754-9.051-9.051-.754.754zm0 .754.754-.754-.754-.754-.754.754.754.754zm9.051 8.297L6.228 6.228l-.754.754 9.051 9.051.754-.754zm-9.051 9.805 9.051-9.051-.754-.754-9.051 9.051.754.754zm.754 0-.754-.754-.754.754.754.754.754-.754zm8.297-9.051-9.051 9.051.754.754 9.051-9.051-.754-.754zm9.805 9.051-9.051-9.051-.754.754 9.051 9.051.754-.754zm0-.754-.754.754.754.754.754-.754-.754-.754zm-9.051-8.297 9.051 9.051.754-.754-9.051-9.051-.754.754zm9.051-9.805-9.051 9.051.754.754 9.051-9.051-.754-.754zm-.754 0 .754.754.754-.754-.754-.754-.754.754zm-8.297 9.051 9.051-9.051-.754-.754-9.051 9.051.754.754z"/></symbol><symbol id="burger-menu" viewBox="0 0 32 32"><path fill="#fff" style="fill:var(--color1,#fff)" d="M26.667 8.533H6.4V7.466h20.267v1.067zm0 17.067H6.4v-1.067h20.267V25.6zM6.4 17.067h20.267V16H6.4v1.067z"/><path fill="#fff" style="fill:var(--color1,#fff)" d="M6.4 8.533h-.533v.533H6.4v-.533zm20.267 0v.533h.533v-.533h-.533zM6.4 7.467v-.533h-.533v.533H6.4zm20.267 0h.533v-.533h-.533v.533zM6.4 25.6h-.533v.533H6.4V25.6zm20.267 0v.533h.533V25.6h-.533zM6.4 24.533V24h-.533v.533H6.4zm20.267 0h.533V24h-.533v.533zm0-7.466v.533h.533v-.533h-.533zm-20.267 0h-.533v.533H6.4v-.533zM26.667 16h.533v-.533h-.533V16zM6.4 16v-.533h-.533V16H6.4zm0-6.933h20.267V8H6.4v1.067zm-.533-1.6v1.067h1.067V7.467H5.867zm20.8-.534H6.4V8h20.267V6.933zm.533 1.6V7.466h-1.067v1.067H27.2zm-20.8 17.6h20.267v-1.067H6.4v1.067zm-.533-1.6V25.6h1.067v-1.067H5.867zm20.8-.533H6.4v1.067h20.267V24zm.533 1.6v-1.067h-1.067V25.6H27.2zm-.533-9.067H6.4V17.6h20.267v-1.067zM26.133 16v1.067H27.2V16h-1.067zM6.4 16.533h20.267v-1.067H6.4v1.067zm.533.534V16H5.866v1.067h1.067z"/></symbol><symbol id="icon-logo" viewBox="0 0 104 32"><path fill="#fff" style="fill:var(--color1,#fff)" d="M40.331 14.878c-2.793-.684-4.842-1.027-4.842-3.527 0-1.553 1.437-2.579 4.124-2.579 3.006 0 4.443 1.316 4.789 3.843h2.394c-.319-3.895-3.139-5.948-7.183-5.948-4.203 0-6.518 1.974-6.518 4.948 0 3.659 3.405 4.632 6.252 5.29 4.257.974 5.667 1.448 5.667 4.027 0 1.684-1.171 3.185-4.469 3.185-3.991 0-5.587-2-5.853-4.58h-2.394c.266 4.316 3.751 6.685 8.247 6.685 4.815 0 6.864-2.553 6.864-5.29 0-4.29-2.793-5.001-7.077-6.054z"/><path fill="#fff" style="fill:var(--color1,#fff)" d="m61.77 25.143-1.904-2.352c1.696-1.71 2.843-3.982 3.313-6.494 1.096-5.826-1.8-10.075-7.356-10.075-5.4 0-9.782 4.089-10.852 9.755-1.096 5.826 1.8 10.102 7.33 10.102 2.113 0 4.122-.615 5.817-1.764l1.904 2.352 1.748-1.523zm-9.287-1.202c-4.643 0-5.974-3.608-5.217-7.643.783-4.196 3.652-7.937 8.4-7.937 4.643 0 6 3.581 5.217 7.617-.365 1.924-1.148 3.715-2.296 5.104l-1.983-2.432-1.722 1.523 1.956 2.459c-1.2.802-2.635 1.309-4.356 1.309z"/><path fill="#fff" style="fill:var(--color1,#fff)" d="M75.852 19.462V6.666h-2.336v12.796c0 3.112-1.557 4.614-4.775 4.614s-4.775-1.502-4.775-4.614V6.666H61.63v12.796c0 3.916 2.154 6.76 7.111 6.76s7.111-2.843 7.111-6.76z"/><path fill="#fff" style="fill:var(--color1,#fff)" d="m84.094 21.105 1.697 4.673h2.505L81.212 7.111h-2.694l-7.111 18.667h2.505l1.697-4.673h8.485zm-7.676-2.089 3.421-9.738h.054l3.421 9.738h-6.896z"/><path fill="#fff" style="fill:var(--color1,#fff)" d="M86.519 25.778h6.783c5.16 0 8.328-3.316 8.328-9.32s-3.168-9.346-8.328-9.346h-6.783v18.667zM88.876 9.2h4.426c4.767 0 5.972 3.603 5.972 7.258s-1.204 7.232-5.972 7.232h-4.426V9.201zM12.15 25.778h2.341L17.716 9.2h6.19l.39-2.089H9.575L9.185 9.2h6.19L12.15 25.778zM4.962 7.111 1.185 25.778H3.63L7.407 7.111H4.962z"/></symbol></defs></svg>