<svg width="30" height="30" viewBox="0 0 30 30" fill="none" xmlns="http://www.w3.org/2000/svg">
<path fill-rule="evenodd" clip-rule="evenodd" d="M25 8H6V7H25V8ZM25 24H6V23H25V24ZM6 16H25V15H6V16Z" fill="white"/>
<path d="M6 8H5.5V8.5H6V8ZM25 8V8.5H25.5V8H25ZM6 7V6.5H5.5V7H6ZM25 7H25.5V6.5H25V7ZM6 24H5.5V24.5H6V24ZM25 24V24.5H25.5V24H25ZM6 23V22.5H5.5V23H6ZM25 23H25.5V22.5H25V23ZM25 16V16.5H25.5V16H25ZM6 16H5.5V16.5H6V16ZM25 15H25.5V14.5H25V15ZM6 15V14.5H5.5V15H6ZM6 8.5H25V7.5H6V8.5ZM5.5 7V8H6.5V7H5.5ZM25 6.5H6V7.5H25V6.5ZM25.5 8V7H24.5V8H25.5ZM6 24.5H25V23.5H6V24.5ZM5.5 23V24H6.5V23H5.5ZM25 22.5H6V23.5H25V22.5ZM25.5 24V23H24.5V24H25.5ZM25 15.5H6V16.5H25V15.5ZM24.5 15V16H25.5V15H24.5ZM6 15.5H25V14.5H6V15.5ZM6.5 16V15H5.5V16H6.5Z" fill="white"/>
</svg>
