<svg width="30" height="30" viewBox="0 0 30 30" fill="none" xmlns="http://www.w3.org/2000/svg">
<g clip-path="url(#clip0_3009_11)">
<path fill-rule="evenodd" clip-rule="evenodd" d="M14.6777 13.9706L6.19239 5.48535L5.48528 6.19245L13.9706 14.6777L5.48528 23.163L6.19239 23.8701L14.6777 15.3848L23.163 23.8701L23.8701 23.163L15.3848 14.6777L23.8701 6.19245L23.163 5.48535L14.6777 13.9706Z" fill="white"/>
<path d="M6.19239 5.48535L6.54594 5.13179L6.19239 4.77824L5.83883 5.13179L6.19239 5.48535ZM14.6777 13.9706L14.3241 14.3242L14.6777 14.6777L15.0312 14.3242L14.6777 13.9706ZM5.48528 6.19245L5.13173 5.8389L4.77817 6.19245L5.13173 6.54601L5.48528 6.19245ZM13.9706 14.6777L14.3241 15.0313L14.6777 14.6777L14.3241 14.3242L13.9706 14.6777ZM5.48528 23.163L5.13173 22.8095L4.77817 23.163L5.13173 23.5166L5.48528 23.163ZM6.19239 23.8701L5.83883 24.2237L6.19239 24.5772L6.54594 24.2237L6.19239 23.8701ZM14.6777 15.3848L15.0312 15.0313L14.6777 14.6777L14.3241 15.0313L14.6777 15.3848ZM23.163 23.8701L22.8094 24.2237L23.163 24.5772L23.5165 24.2237L23.163 23.8701ZM23.8701 23.163L24.2236 23.5166L24.5772 23.163L24.2236 22.8095L23.8701 23.163ZM15.3848 14.6777L15.0312 14.3242L14.6777 14.6777L15.0312 15.0313L15.3848 14.6777ZM23.8701 6.19245L24.2236 6.54601L24.5772 6.19245L24.2236 5.8389L23.8701 6.19245ZM23.163 5.48535L23.5165 5.13179L23.163 4.77824L22.8094 5.13179L23.163 5.48535ZM5.83883 5.8389L14.3241 14.3242L15.0312 13.6171L6.54594 5.13179L5.83883 5.8389ZM5.83883 6.54601L6.54594 5.8389L5.83883 5.13179L5.13173 5.8389L5.83883 6.54601ZM14.3241 14.3242L5.83883 5.8389L5.13173 6.54601L13.617 15.0313L14.3241 14.3242ZM5.83883 23.5166L14.3241 15.0313L13.617 14.3242L5.13173 22.8095L5.83883 23.5166ZM6.54594 23.5166L5.83883 22.8095L5.13173 23.5166L5.83883 24.2237L6.54594 23.5166ZM14.3241 15.0313L5.83883 23.5166L6.54594 24.2237L15.0312 15.7384L14.3241 15.0313ZM23.5165 23.5166L15.0312 15.0313L14.3241 15.7384L22.8094 24.2237L23.5165 23.5166ZM23.5165 22.8095L22.8094 23.5166L23.5165 24.2237L24.2236 23.5166L23.5165 22.8095ZM15.0312 15.0313L23.5165 23.5166L24.2236 22.8095L15.7383 14.3242L15.0312 15.0313ZM23.5165 5.8389L15.0312 14.3242L15.7383 15.0313L24.2236 6.54601L23.5165 5.8389ZM22.8094 5.8389L23.5165 6.54601L24.2236 5.8389L23.5165 5.13179L22.8094 5.8389ZM15.0312 14.3242L23.5165 5.8389L22.8094 5.13179L14.3241 13.6171L15.0312 14.3242Z" fill="#222222"/>
</g>
<defs>
<clipPath id="clip0_3009_11">
<rect width="30" height="30" fill="white"/>
</clipPath>
</defs>
</svg>
