<svg aria-hidden="true" style="position: absolute; width: 0; height: 0; overflow: hidden;" version="1.1" xmlns="http://www.w3.org/2000/svg" xmlns:xlink="http://www.w3.org/1999/xlink">
<defs>
<symbol id="logo" viewBox="0 0 104 32">
<path fill="#fff" style="fill: var(--color1, #fff)" d="M40.331 14.878c-2.793-0.684-4.842-1.027-4.842-3.527 0-1.553 1.437-2.579 4.124-2.579 3.006 0 4.443 1.316 4.789 3.843h2.394c-0.319-3.895-3.139-5.948-7.183-5.948-4.203 0-6.518 1.974-6.518 4.948 0 3.659 3.405 4.632 6.252 5.29 4.257 0.974 5.667 1.448 5.667 4.027 0 1.684-1.171 3.185-4.469 3.185-3.991 0-5.587-2-5.853-4.58h-2.394c0.266 4.316 3.751 6.685 8.247 6.685 4.815 0 6.864-2.553 6.864-5.29 0-4.29-2.793-5.001-7.077-6.054z"></path>
<path fill="#fff" style="fill: var(--color1, #fff)" d="M61.77 25.143l-1.904-2.352c1.696-1.71 2.843-3.982 3.313-6.494 1.096-5.826-1.8-10.075-7.356-10.075-5.4 0-9.782 4.089-10.852 9.755-1.096 5.826 1.8 10.102 7.33 10.102 2.113 0 4.122-0.615 5.817-1.764l1.904 2.352 1.748-1.523zM52.483 23.941c-4.643 0-5.974-3.608-5.217-7.643 0.783-4.196 3.652-7.937 8.4-7.937 4.643 0 6 3.581 5.217 7.617-0.365 1.924-1.148 3.715-2.296 5.104l-1.983-2.432-1.722 1.523 1.956 2.459c-1.2 0.802-2.635 1.309-4.356 1.309z"></path>
<path fill="#fff" style="fill: var(--color1, #fff)" d="M75.852 19.462v-12.796h-2.336v12.796c0 3.112-1.557 4.614-4.775 4.614s-4.775-1.502-4.775-4.614v-12.796h-2.336v12.796c0 3.916 2.154 6.76 7.111 6.76s7.111-2.843 7.111-6.76z"></path>
<path fill="#fff" style="fill: var(--color1, #fff)" d="M84.094 21.105l1.697 4.673h2.505l-7.084-18.667h-2.694l-7.111 18.667h2.505l1.697-4.673h8.485zM76.418 19.016l3.421-9.738h0.054l3.421 9.738h-6.896z"></path>
<path fill="#fff" style="fill: var(--color1, #fff)" d="M86.519 25.778h6.783c5.16 0 8.328-3.316 8.328-9.32s-3.168-9.346-8.328-9.346h-6.783v18.667zM88.876 9.2h4.426c4.767 0 5.972 3.603 5.972 7.258s-1.204 7.232-5.972 7.232h-4.426v-14.489z"></path>
<path fill="#fff" style="fill: var(--color1, #fff)" d="M12.15 25.778h2.341l3.225-16.578h6.19l0.39-2.089h-14.721l-0.39 2.089h6.19l-3.225 16.578z"></path>
<path fill="#fff" style="fill: var(--color1, #fff)" d="M4.962 7.111l-3.777 18.667h2.445l3.777-18.667h-2.445z"></path>
</symbol>
</defs>
</svg>
