<svg aria-hidden="true" style="position: absolute; width: 0; height: 0; overflow: hidden;" version="1.1" xmlns="http://www.w3.org/2000/svg" xmlns:xlink="http://www.w3.org/1999/xlink">
<defs>
<symbol id="aroow-dwn" viewBox="0 0 32 32">
<path fill="none" stroke="#cbcbcb" style="stroke: var(--color1, #cbcbcb)" stroke-linejoin="miter" stroke-linecap="butt" stroke-miterlimit="4" stroke-width="0.4776" d="M15.842 0.226v31.050M30.972 16.27l-15.2 15.2M0.572 15.932l15.2 15.2"></path>
</symbol>
<symbol id="burger-cross" viewBox="0 0 32 32">
<path fill="#fff" style="fill: var(--color2, #fff)" d="M15.657 14.901l-9.052-9.050-0.754 0.754 9.052 9.052-9.052 9.051 0.754 0.754 9.052-9.051 9.051 9.051 0.754-0.754-9.051-9.051 9.051-9.052-0.754-0.754-9.051 9.052z"></path>
<path fill="#222" style="fill: var(--color3, #222)" d="M6.605 5.851l0.378-0.377-0.378-0.378-0.377 0.378 0.377 0.377zM15.657 14.902l-0.378 0.377 0.378 0.378 0.377-0.378-0.377-0.377zM5.851 6.605l-0.377-0.377-0.378 0.377 0.378 0.378 0.377-0.378zM14.902 15.657l0.377 0.377 0.378-0.377-0.378-0.378-0.377 0.378zM5.851 24.707l-0.377-0.378-0.378 0.378 0.378 0.378 0.377-0.378zM6.605 25.461l-0.377 0.378 0.377 0.377 0.378-0.377-0.378-0.378zM15.657 16.411l0.377-0.378-0.377-0.377-0.378 0.377 0.378 0.378zM24.707 25.461l-0.378 0.378 0.378 0.377 0.378-0.377-0.378-0.378zM25.461 24.707l0.378 0.378 0.377-0.378-0.377-0.378-0.378 0.378zM16.411 15.657l-0.378-0.378-0.377 0.378 0.377 0.377 0.378-0.377zM25.461 6.605l0.378 0.378 0.377-0.378-0.377-0.377-0.378 0.377zM24.707 5.851l0.378-0.377-0.378-0.378-0.378 0.378 0.378 0.377zM6.228 6.229l9.051 9.051 0.754-0.754-9.051-9.051-0.754 0.754zM6.228 6.983l0.754-0.754-0.754-0.754-0.754 0.754 0.754 0.754zM15.279 15.28l-9.050-9.051-0.754 0.754 9.051 9.051 0.754-0.754zM6.229 25.085l9.051-9.052-0.754-0.754-9.051 9.052 0.754 0.754zM6.983 25.085l-0.754-0.754-0.754 0.754 0.754 0.754 0.754-0.754zM15.28 16.033l-9.051 9.052 0.754 0.754 9.051-9.052-0.754-0.754zM25.086 25.085l-9.054-9.053-0.754 0.754 9.051 9.052 0.754-0.754zM25.086 24.331l-0.755 0.754 0.754 0.754 0.755-0.754-0.754-0.754zM16.032 16.032l9.052 9.052 0.754-0.754-9.052-9.052-0.754 0.754zM25.084 6.227l-9.052 9.051 0.754 0.754 9.052-9.051-0.754-0.754zM24.329 6.227l0.754 0.754 0.755-0.754-0.754-0.754-0.755 0.754zM16.032 15.278l9.052-9.051-0.755-0.754-9.051 9.051 0.754 0.754z"></path>
</symbol>
<symbol id="burger-menu" viewBox="0 0 32 32">
<path fill="#fff" style="fill: var(--color2, #fff)" d="M26.667 8.533h-20.267v-1.067h20.267v1.067zM26.667 25.6h-20.267v-1.067h20.267v1.067zM6.4 17.067h20.267v-1.067h-20.267v1.067z"></path>
<path fill="#fff" style="fill: var(--color2, #fff)" d="M6.4 8.533h-0.533v0.533h0.533v-0.533zM26.667 8.533v0.533h0.533v-0.533h-0.533zM6.4 7.467v-0.533h-0.533v0.533h0.533zM26.667 7.467h0.533v-0.533h-0.533v0.533zM6.4 25.6h-0.533v0.533h0.533v-0.533zM26.667 25.6v0.533h0.533v-0.533h-0.533zM6.4 24.533v-0.533h-0.533v0.533h0.533zM26.667 24.533h0.533v-0.533h-0.533v0.533zM26.667 17.067v0.533h0.533v-0.533h-0.533zM6.4 17.067h-0.533v0.533h0.533v-0.533zM26.667 16h0.533v-0.533h-0.533v0.533zM6.4 16v-0.533h-0.533v0.533h0.533zM6.4 9.067h20.267v-1.067h-20.267v1.067zM5.867 7.467v1.067h1.067v-1.067h-1.067zM26.667 6.933h-20.267v1.067h20.267v-1.067zM27.2 8.533v-1.067h-1.067v1.067h1.067zM6.4 26.133h20.267v-1.067h-20.267v1.067zM5.867 24.533v1.067h1.067v-1.067h-1.067zM26.667 24h-20.267v1.067h20.267v-1.067zM27.2 25.6v-1.067h-1.067v1.067h1.067zM26.667 16.533h-20.267v1.067h20.267v-1.067zM26.133 16v1.067h1.067v-1.067h-1.067zM6.4 16.533h20.267v-1.067h-20.267v1.067zM6.933 17.067v-1.067h-1.067v1.067h1.067z"></path>
</symbol>
<symbol id="logo-it" viewBox="0 0 104 32">
<path   d="M40.335 14.881c-2.793-0.684-4.842-1.027-4.842-3.527 0-1.553 1.437-2.58 4.125-2.58 3.006 0 4.442 1.316 4.789 3.843h2.394c-0.319-3.896-3.14-5.949-7.183-5.949-4.205 0-6.52 1.974-6.52 4.949 0 3.658 3.406 4.632 6.253 5.29 4.257 0.974 5.667 1.448 5.667 4.027 0 1.686-1.171 3.185-4.47 3.185-3.992 0-5.587-2-5.854-4.58h-2.395c0.267 4.317 3.751 6.686 8.249 6.686 4.816 0 6.864-2.553 6.864-5.29 0-4.291-2.793-5.001-7.076-6.054z"></path>
<path   d="M61.776 25.147l-1.904-2.352c1.695-1.71 2.843-3.983 3.313-6.494 1.095-5.827-1.801-10.077-7.357-10.077-5.401 0-9.783 4.089-10.854 9.756-1.095 5.826 1.8 10.103 7.331 10.103 2.113 0 4.122-0.615 5.817-1.765l1.905 2.352 1.748-1.524zM52.488 23.944c-4.643 0-5.974-3.607-5.218-7.643 0.783-4.196 3.654-7.939 8.401-7.939 4.644 0 6.001 3.582 5.218 7.618-0.364 1.925-1.148 3.715-2.295 5.105l-1.982-2.432-1.723 1.524 1.957 2.459c-1.2 0.802-2.635 1.309-4.356 1.309z"></path>
<path   d="M75.86 19.465v-12.797h-2.336v12.797c0 3.111-1.558 4.614-4.776 4.614s-4.776-1.502-4.776-4.614v-12.797h-2.335v12.797c0 3.917 2.154 6.761 7.112 6.761s7.112-2.844 7.112-6.761z"></path>
<path   d="M84.102 21.108l1.698 4.673h2.504l-7.085-18.668h-2.694l-7.112 18.668h2.506l1.697-4.673h8.485zM76.425 19.019l3.421-9.739h0.053l3.423 9.739h-6.897z"></path>
<path  d="M86.528 25.781h6.783c5.16 0 8.329-3.316 8.329-9.321s-3.168-9.348-8.329-9.348h-6.783v18.668zM88.884 9.202h4.426c4.768 0 5.972 3.603 5.972 7.258s-1.205 7.232-5.972 7.232h-4.426v-14.49zM12.152 25.781h2.34l3.226-16.579h6.191l0.39-2.089h-14.724l-0.389 2.089h6.19l-3.223 16.579zM4.962 7.113l-3.776 18.668h2.445l3.778-18.668h-2.446z"></path>
</symbol>
</defs>
</svg>
