<svg aria-hidden="true" style="position: absolute; width: 0; height: 0; overflow: hidden;" version="1.1" xmlns="http://www.w3.org/2000/svg" xmlns:xlink="http://www.w3.org/1999/xlink">
<defs>
<symbol id="arrow" viewBox="0 0 32 32">
<path fill="none" stroke="#cbcbcb" style="stroke: var(--color1, #cbcbcb)" stroke-linejoin="miter" stroke-linecap="butt" stroke-miterlimit="4" stroke-width="0.4776" d="M15.841 0.226v31.045"></path>
<path fill="none" stroke="#cbcbcb" style="stroke: var(--color1, #cbcbcb)" stroke-linejoin="miter" stroke-linecap="butt" stroke-miterlimit="4" stroke-width="0.4776" d="M30.969 16.267l-15.198 15.198"></path>
<path fill="none" stroke="#cbcbcb" style="stroke: var(--color1, #cbcbcb)" stroke-linejoin="miter" stroke-linecap="butt" stroke-miterlimit="4" stroke-width="0.4776" d="M0.574 15.93l15.197 15.198"></path>
</symbol>
<symbol id="icon-burger-menu" viewBox="0 0 32 32">
<path fill="#fff" style="fill: var(--color2, #fff)" d="M26.667 8.533h-20.267v-1.067h20.267v1.067zM26.667 25.6h-20.267v-1.067h20.267v1.067zM6.4 17.067h20.267v-1.067h-20.267v1.067z"></path>
<path fill="#fff" style="fill: var(--color2, #fff)" d="M6.4 8.533h-0.533v0.533h0.533v-0.533zM26.667 8.533v0.533h0.533v-0.533h-0.533zM6.4 7.467v-0.533h-0.533v0.533h0.533zM26.667 7.467h0.533v-0.533h-0.533v0.533zM6.4 25.6h-0.533v0.533h0.533v-0.533zM26.667 25.6v0.533h0.533v-0.533h-0.533zM6.4 24.533v-0.533h-0.533v0.533h0.533zM26.667 24.533h0.533v-0.533h-0.533v0.533zM26.667 17.067v0.533h0.533v-0.533h-0.533zM6.4 17.067h-0.533v0.533h0.533v-0.533zM26.667 16h0.533v-0.533h-0.533v0.533zM6.4 16v-0.533h-0.533v0.533h0.533zM6.4 9.067h20.267v-1.067h-20.267v1.067zM5.867 7.467v1.067h1.067v-1.067h-1.067zM26.667 6.933h-20.267v1.067h20.267v-1.067zM27.2 8.533v-1.067h-1.067v1.067h1.067zM6.4 26.133h20.267v-1.067h-20.267v1.067zM5.867 24.533v1.067h1.067v-1.067h-1.067zM26.667 24h-20.267v1.067h20.267v-1.067zM27.2 25.6v-1.067h-1.067v1.067h1.067zM26.667 16.533h-20.267v1.067h20.267v-1.067zM26.133 16v1.067h1.067v-1.067h-1.067zM6.4 16.533h20.267v-1.067h-20.267v1.067zM6.933 17.067v-1.067h-1.067v1.067h1.067z"></path>
</symbol>
<symbol id="icon-burger-cross" viewBox="0 0 32 32">
<path fill="#fff" style="fill: var(--color2, #fff)" d="M15.656 14.902l-9.051-9.051-0.754 0.754 9.051 9.051-9.051 9.051 0.754 0.754 9.051-9.051 9.051 9.051 0.754-0.754-9.051-9.051 9.051-9.051-0.754-0.754-9.051 9.051z"></path>
<path fill="#222" style="fill: var(--color3, #222)" d="M6.605 5.851l0.377-0.377-0.377-0.377-0.377 0.377 0.377 0.377zM15.656 14.902l-0.377 0.377 0.377 0.377 0.377-0.377-0.377-0.377zM5.851 6.605l-0.377-0.377-0.377 0.377 0.377 0.377 0.377-0.377zM14.902 15.656l0.377 0.377 0.377-0.377-0.377-0.377-0.377 0.377zM5.851 24.707l-0.377-0.377-0.377 0.377 0.377 0.377 0.377-0.377zM6.605 25.461l-0.377 0.377 0.377 0.377 0.377-0.377-0.377-0.377zM15.656 16.41l0.377-0.377-0.377-0.377-0.377 0.377 0.377 0.377zM24.707 25.461l-0.377 0.377 0.377 0.377 0.377-0.377-0.377-0.377zM25.461 24.707l0.377 0.377 0.377-0.377-0.377-0.377-0.377 0.377zM16.41 15.656l-0.377-0.377-0.377 0.377 0.377 0.377 0.377-0.377zM25.461 6.605l0.377 0.377 0.377-0.377-0.377-0.377-0.377 0.377zM24.707 5.851l0.377-0.377-0.377-0.377-0.377 0.377 0.377 0.377zM6.228 6.228l9.051 9.051 0.754-0.754-9.051-9.051-0.754 0.754zM6.228 6.982l0.754-0.754-0.754-0.754-0.754 0.754 0.754 0.754zM15.279 15.279l-9.051-9.051-0.754 0.754 9.051 9.051 0.754-0.754zM6.228 25.084l9.051-9.051-0.754-0.754-9.051 9.051 0.754 0.754zM6.982 25.084l-0.754-0.754-0.754 0.754 0.754 0.754 0.754-0.754zM15.279 16.033l-9.051 9.051 0.754 0.754 9.051-9.051-0.754-0.754zM25.084 25.084l-9.051-9.051-0.754 0.754 9.051 9.051 0.754-0.754zM25.084 24.33l-0.754 0.754 0.754 0.754 0.754-0.754-0.754-0.754zM16.033 16.033l9.051 9.051 0.754-0.754-9.051-9.051-0.754 0.754zM25.084 6.228l-9.051 9.051 0.754 0.754 9.051-9.051-0.754-0.754zM24.33 6.228l0.754 0.754 0.754-0.754-0.754-0.754-0.754 0.754zM16.033 15.279l9.051-9.051-0.754-0.754-9.051 9.051 0.754 0.754z"></path>
</symbol>
<symbol id="icon-logo" viewBox="0 0 104 32">
<path fill="#fff" style="fill: var(--color2, #fff)" d="M40.331 14.878c-2.793-0.684-4.842-1.027-4.842-3.527 0-1.553 1.437-2.579 4.124-2.579 3.006 0 4.443 1.316 4.789 3.843h2.394c-0.319-3.895-3.139-5.948-7.183-5.948-4.203 0-6.518 1.974-6.518 4.948 0 3.659 3.405 4.632 6.252 5.29 4.257 0.974 5.667 1.448 5.667 4.027 0 1.684-1.171 3.185-4.469 3.185-3.991 0-5.587-2-5.853-4.58h-2.394c0.266 4.316 3.751 6.685 8.247 6.685 4.815 0 6.864-2.553 6.864-5.29 0-4.29-2.793-5.001-7.077-6.054z"></path>
<path fill="#fff" style="fill: var(--color2, #fff)" d="M61.77 25.143l-1.904-2.352c1.696-1.71 2.843-3.982 3.313-6.494 1.096-5.826-1.8-10.075-7.356-10.075-5.4 0-9.782 4.089-10.852 9.755-1.096 5.826 1.8 10.102 7.33 10.102 2.113 0 4.122-0.615 5.817-1.764l1.904 2.352 1.748-1.523zM52.483 23.941c-4.643 0-5.974-3.608-5.217-7.643 0.783-4.196 3.652-7.937 8.4-7.937 4.643 0 6 3.581 5.217 7.617-0.365 1.924-1.148 3.715-2.296 5.104l-1.983-2.432-1.722 1.523 1.956 2.459c-1.2 0.802-2.635 1.309-4.356 1.309z"></path>
<path fill="#fff" style="fill: var(--color2, #fff)" d="M75.852 19.462v-12.796h-2.336v12.796c0 3.112-1.557 4.614-4.775 4.614s-4.775-1.502-4.775-4.614v-12.796h-2.336v12.796c0 3.916 2.154 6.76 7.111 6.76s7.111-2.843 7.111-6.76z"></path>
<path fill="#fff" style="fill: var(--color2, #fff)" d="M84.094 21.105l1.697 4.673h2.505l-7.084-18.667h-2.694l-7.111 18.667h2.505l1.697-4.673h8.485zM76.418 19.016l3.421-9.738h0.054l3.421 9.738h-6.896z"></path>
<path fill="#fff" style="fill: var(--color2, #fff)" d="M86.519 25.778h6.783c5.16 0 8.328-3.316 8.328-9.32s-3.168-9.346-8.328-9.346h-6.783v18.667zM88.876 9.2h4.426c4.767 0 5.972 3.603 5.972 7.258s-1.204 7.232-5.972 7.232h-4.426v-14.489z"></path>
<path fill="#fff" style="fill: var(--color2, #fff)" d="M12.15 25.778h2.341l3.225-16.578h6.19l0.39-2.089h-14.721l-0.39 2.089h6.19l-3.225 16.578z"></path>
<path fill="#fff" style="fill: var(--color2, #fff)" d="M4.962 7.111l-3.777 18.667h2.445l3.777-18.667h-2.445z"></path>
</symbol>
</defs>
</svg>
